<svg width="87" height="73" viewBox="0 0 87 73" fill="none" xmlns="http://www.w3.org/2000/svg">
<path d="M38.5 63C37.238 61.4481 36 58.5 35.5 56C42 56 48.8316 56.2248 54 57.5C56.5869 58.1382 57.7892 61.2443 60 63.7033C57.262 65.0519 43.738 66.4481 38.5 63Z" fill="#727272"/>
<path d="M51.8294 36.2113C46.9119 37.2304 41.9537 37.9683 36.9752 38.5229C31.3486 39.1496 25.7038 39.6117 19.8261 39.841C14.6241 17.8299 35.0563 -1.49412 51.2605 0.0911615C45.5481 12.1413 44.4703 24.1236 51.8294 36.2113Z" fill="#737273"/>
<path d="M75.2823 51.0043C73.027 49.3861 71.0818 47.6065 69.1168 45.4798C71.8201 45.5404 74.5434 45.948 78.0543 46.4735C77.0963 48.1738 76.3444 49.5084 75.2823 51.0043Z" fill="#6F6E6F"/>
<path d="M39.0585 62.8751C38.7745 65.2381 38.7064 67.6585 38.1001 69.9356C37.8583 70.8438 36.4276 71.4355 35.5381 72.1712C35.2836 71.1778 34.9544 70.1964 34.7917 69.1881C34.5337 67.5888 34.6101 65.9055 34.156 64.373C31.7481 56.247 26.0144 55.3417 18.5353 60.58C13.4373 64.1506 8.36306 67.7586 3.17081 71.1873C2.42316 71.681 1.07192 71.2607 0 71.2633C0.573883 70.2825 0.981567 69.1399 1.75123 68.3498C4.64799 65.3763 8.15065 62.8574 10.4808 59.51C12.3921 56.7645 12.961 53.0846 14.413 49.0108C11.0039 48.8497 8.90338 48.766 6.8048 48.6479C2.99607 48.4336 1.0199 46.8474 2.93671 42.9002C4.04786 40.612 4.8588 39.2823 5.70415 37.8343C5.8331 37.6134 4.96284 36.3897 5.09457 36.1595C5.791 36.2194 7.95456 36.6077 8.59457 36.6595C11.961 36.9324 14.1759 37.7867 17.5946 38.1595C23.7781 37.7667 30.5954 36.3099 36.2219 35.6831C41.2005 35.1285 46.1586 34.3906 51.1258 33.7337C54.3487 33.911 57.9097 35.0434 60.718 34.0495C65.3157 32.4223 69.6368 29.7158 73.6704 26.8881C76.8279 24.6746 77.5502 21.294 76.349 17.3123C74.3185 10.5818 77.4869 6.35313 82.3203 7.08121C81.6384 12.4689 81.1199 17.7875 80.2116 23.0387C79.9184 24.734 78.8171 26.4253 77.7056 27.8145C75.5462 30.5135 72.7802 32.7837 70.9561 35.6683C70.1508 36.9418 70.8186 39.3275 71.2138 41.1209C71.5165 42.4944 72.4413 43.7309 73.1603 45.7574C75.1764 48.266 77.1216 50.0456 79.0667 51.8252C81.429 56.6384 83.9277 61.393 86.041 66.3131C86.4767 67.3273 85.4749 68.9588 84.5827 70.4036C81.0293 63.1343 76.9918 57.2711 67.8254 58.7229C68.1756 67.6976 61.1063 74.27 54.3879 71.5228C56.4419 69.3598 58.487 67.2061 60.3072 64.4951C57.8658 61.8647 55.9417 58.6007 53.3711 57.9696C48.2352 56.7086 42.5311 57.0056 36 56.5C37.2257 59.2963 38.249 61.0283 39.0585 62.8751Z" fill="#FEFEFE"/>
</svg>
